<?xml version="1.0" encoding="UTF-8" standalone="no"?>
<svg
   width="100%"
   height="100%"
   viewBox="0 0 73 73"
   version="1.1"
   xml:space="preserve"
   style="fill-rule:evenodd;clip-rule:evenodd;stroke-linejoin:round;stroke-miterlimit:2;"
   id="svg1"
   sodipodi:docname="favicon-dark.svg"
   inkscape:version="1.4 (86a8ad7, 2024-10-11)"
   xmlns:inkscape="http://www.inkscape.org/namespaces/inkscape"
   xmlns:sodipodi="http://sodipodi.sourceforge.net/DTD/sodipodi-0.dtd"
   xmlns="http://www.w3.org/2000/svg"
   xmlns:svg="http://www.w3.org/2000/svg"><defs
   id="defs1" /><sodipodi:namedview
   id="namedview1"
   pagecolor="#ffffff"
   bordercolor="#000000"
   borderopacity="0.25"
   inkscape:showpageshadow="2"
   inkscape:pageopacity="0.0"
   inkscape:pagecheckerboard="0"
   inkscape:deskcolor="#d1d1d1"
   inkscape:zoom="15.863014"
   inkscape:cx="36.53152"
   inkscape:cy="36.5"
   inkscape:window-width="2560"
   inkscape:window-height="1351"
   inkscape:window-x="1341"
   inkscape:window-y="-9"
   inkscape:window-maximized="1"
   inkscape:current-layer="g1" />
    <g
   id="g1">
        <path
   d="M63.48,37.298L65.929,37.298L62.011,38.278L63.48,37.298ZM49.954,44.468L51.227,42.558L53.773,41.922L49.954,44.468ZM41.863,53.833L42.5,51.285L44.411,50.011L41.863,53.833ZM37.24,65.988L37.24,63.539L38.22,62.069L37.24,65.988ZM35.702,63.539L35.702,65.988L34.722,62.069L35.702,63.539ZM28.532,50.011L30.442,51.285L31.079,53.832L28.532,50.011ZM19.169,41.922L21.716,42.558L22.989,44.468L19.169,41.922ZM7.013,37.298L9.462,37.298L10.931,38.278L7.013,37.298ZM9.462,35.761L7.013,35.761L10.931,34.781L9.462,35.761ZM22.989,28.59L21.716,30.5L19.169,31.137L22.989,28.59ZM31.079,19.227L30.442,21.774L28.532,23.047L31.079,19.227ZM35.702,7.07L35.702,9.52L34.722,10.99L35.702,7.07ZM37.24,9.52L37.24,7.07L38.22,10.99L37.24,9.52ZM44.41,23.047L42.5,21.774L41.863,19.226L44.41,23.047ZM53.773,31.137L51.227,30.501L49.954,28.591L53.773,31.137ZM54.734,37.298L60.709,37.298L57.576,39.386L52.494,40.658L54.734,37.298ZM44.668,42.613L45.997,37.298L52.886,37.298L50.277,41.211L44.668,42.613ZM44.245,44.304L49.01,43.113L46.628,46.685L43.054,49.068L44.245,44.304ZM37.24,52.944L37.24,46.055L42.555,44.726L41.153,50.335L37.24,52.944ZM37.24,54.792L40.599,52.552L39.328,57.634L37.24,60.767L37.24,54.792ZM35.702,54.792L35.702,60.767L33.614,57.634L32.342,52.552L35.702,54.792ZM30.387,44.726L35.702,46.055L35.702,52.944L31.789,50.335L30.387,44.726ZM28.697,44.304L29.888,49.068L26.315,46.686L23.933,43.113L28.697,44.304ZM20.057,37.298L26.946,37.298L28.274,42.613L22.665,41.211L20.057,37.298ZM18.209,37.298L20.448,40.658L15.366,39.386L12.233,37.298L18.209,37.298ZM18.209,35.761L12.233,35.761L15.365,33.673L20.448,32.402L18.209,35.761ZM28.274,30.445L26.946,35.761L20.057,35.761L22.665,31.848L28.274,30.445ZM28.697,28.755L23.933,29.946L26.315,26.373L29.888,23.991L28.697,28.755ZM35.702,20.115L35.702,27.004L30.387,28.333L31.789,22.723L35.702,20.115ZM35.702,18.267L32.342,20.506L33.614,15.425L35.702,12.292L35.702,18.267ZM37.24,18.267L37.24,12.292L39.329,15.425L40.599,20.506L37.24,18.267ZM42.555,28.333L37.24,27.004L37.24,20.115L41.153,22.723L42.555,28.333ZM44.245,28.755L43.054,23.991L46.628,26.373L49.01,29.946L44.245,28.755ZM37.24,37.298L44.413,37.298L42.978,43.036L37.24,44.47L37.24,37.298ZM35.702,37.298L35.702,44.47L29.964,43.036L28.529,37.298L35.702,37.298ZM35.702,35.761L28.529,35.761L29.964,30.023L35.702,28.588L35.702,35.761ZM37.24,28.588L42.978,30.023L44.413,35.761L37.24,35.761L37.24,28.588ZM52.886,35.761L45.997,35.761L44.668,30.445L50.278,31.848L52.886,35.761ZM54.734,35.761L52.495,32.402L57.577,33.673L60.709,35.761L54.734,35.761ZM65.929,35.761L63.48,35.761L62.011,34.781L65.929,35.761ZM72.93,36.588C72.932,36.567 72.942,36.55 72.942,36.529C72.942,36.508 72.932,36.491 72.93,36.471C72.928,36.438 72.927,36.407 72.92,36.376C72.918,36.364 72.922,36.354 72.918,36.343C72.914,36.323 72.9,36.309 72.894,36.291C72.881,36.254 72.868,36.219 72.851,36.184C72.836,36.155 72.822,36.128 72.803,36.101C72.786,36.076 72.768,36.055 72.748,36.032C72.724,36.004 72.7,35.98 72.672,35.955C72.648,35.934 72.624,35.915 72.597,35.896C72.572,35.879 72.546,35.866 72.519,35.852C72.485,35.835 72.45,35.821 72.413,35.809C72.394,35.802 72.38,35.788 72.359,35.783L58.208,32.246L47.736,25.265L40.754,14.792L37.216,0.641C37.212,0.621 37.198,0.607 37.192,0.588C37.179,0.551 37.166,0.517 37.149,0.482C37.134,0.454 37.12,0.427 37.102,0.401C37.085,0.374 37.065,0.352 37.045,0.328C37.021,0.301 36.997,0.277 36.97,0.253C36.947,0.233 36.924,0.214 36.899,0.196C36.871,0.177 36.843,0.163 36.813,0.148C36.78,0.131 36.747,0.119 36.711,0.107C36.692,0.1 36.677,0.086 36.657,0.081C36.647,0.079 36.637,0.082 36.627,0.08C36.593,0.073 36.56,0.072 36.526,0.07C36.507,0.068 36.491,0.058 36.471,0.058C36.452,0.058 36.436,0.068 36.417,0.069C36.382,0.072 36.349,0.073 36.315,0.08C36.305,0.082 36.295,0.079 36.285,0.081C36.265,0.086 36.25,0.1 36.231,0.107C36.196,0.119 36.162,0.131 36.129,0.147C36.099,0.163 36.071,0.177 36.043,0.196C36.017,0.214 35.995,0.233 35.972,0.253C35.945,0.277 35.921,0.3 35.898,0.327C35.877,0.351 35.857,0.374 35.839,0.401C35.821,0.428 35.808,0.454 35.793,0.482C35.776,0.517 35.763,0.551 35.751,0.588C35.744,0.607 35.73,0.621 35.726,0.641L32.188,14.792L25.207,25.264L14.734,32.246L0.583,35.783C0.563,35.788 0.548,35.802 0.529,35.809C0.493,35.821 0.46,35.833 0.427,35.85C0.397,35.865 0.368,35.88 0.34,35.899C0.315,35.916 0.293,35.935 0.27,35.955C0.243,35.979 0.219,36.002 0.196,36.029C0.175,36.053 0.155,36.077 0.136,36.104C0.119,36.13 0.105,36.157 0.091,36.185C0.074,36.219 0.06,36.253 0.049,36.29C0.042,36.309 0.028,36.323 0.024,36.343C0.021,36.354 0.024,36.364 0.022,36.376C0.015,36.407 0.015,36.438 0.012,36.471C0.01,36.491 0,36.508 0,36.529C0,36.55 0.01,36.567 0.012,36.588C0.015,36.62 0.015,36.651 0.022,36.683C0.024,36.694 0.021,36.705 0.024,36.716C0.029,36.738 0.042,36.755 0.05,36.776C0.062,36.811 0.075,36.842 0.091,36.874C0.102,36.895 0.108,36.917 0.121,36.937C0.14,36.968 0.166,36.993 0.19,37.02C0.213,37.048 0.235,37.073 0.26,37.097C0.276,37.111 0.288,37.128 0.304,37.14C0.314,37.148 0.328,37.152 0.339,37.159C0.361,37.174 0.387,37.185 0.41,37.198C0.439,37.213 0.463,37.231 0.493,37.242C0.514,37.25 0.534,37.256 0.556,37.262C0.566,37.265 0.573,37.273 0.583,37.275L14.735,40.813L25.206,47.794L32.188,58.267L35.726,72.417C35.731,72.44 35.745,72.457 35.752,72.479C35.764,72.512 35.777,72.544 35.793,72.576C35.804,72.597 35.81,72.62 35.823,72.639C35.842,72.67 35.868,72.694 35.892,72.722C35.915,72.75 35.937,72.775 35.964,72.799C35.979,72.812 35.99,72.829 36.006,72.842C36.016,72.85 36.03,72.853 36.041,72.861C36.063,72.876 36.089,72.887 36.113,72.899C36.141,72.915 36.165,72.932 36.195,72.944C36.216,72.952 36.236,72.958 36.258,72.964C36.268,72.967 36.275,72.974 36.285,72.977C36.345,72.992 36.406,72.998 36.466,72.999C36.468,72.999 36.469,73 36.47,73L36.472,73C36.473,73 36.474,72.999 36.476,72.999C36.536,72.998 36.597,72.992 36.657,72.977C36.667,72.974 36.674,72.967 36.684,72.964C36.705,72.958 36.726,72.952 36.747,72.944C36.777,72.932 36.801,72.915 36.829,72.899C36.853,72.886 36.879,72.876 36.901,72.861C36.912,72.853 36.926,72.85 36.936,72.842C36.952,72.829 36.963,72.812 36.978,72.799C37.005,72.775 37.027,72.75 37.05,72.722C37.074,72.694 37.1,72.67 37.119,72.639C37.132,72.62 37.138,72.597 37.149,72.576C37.165,72.544 37.178,72.512 37.19,72.479C37.197,72.457 37.211,72.44 37.216,72.417L40.754,58.267L47.737,47.794L58.207,40.813L72.359,37.275C72.369,37.273 72.376,37.265 72.386,37.262C72.407,37.256 72.428,37.25 72.449,37.242C72.479,37.231 72.503,37.213 72.532,37.198C72.556,37.185 72.581,37.174 72.603,37.159C72.614,37.152 72.628,37.148 72.638,37.14C72.654,37.128 72.666,37.111 72.681,37.097C72.707,37.073 72.729,37.048 72.752,37.02C72.776,36.993 72.802,36.968 72.821,36.937C72.834,36.917 72.84,36.895 72.851,36.874C72.867,36.842 72.88,36.811 72.892,36.776C72.899,36.755 72.913,36.738 72.918,36.716C72.922,36.705 72.918,36.694 72.92,36.683C72.926,36.651 72.928,36.62 72.93,36.588Z"
   style="fill:#b99ae4;fill-rule:nonzero;fill-opacity:1"
   id="path1" />
    </g>
</svg>
