<?xml version="1.0" encoding="UTF-8"?>
<svg clip-rule="evenodd" fill-rule="evenodd" stroke-linejoin="round" stroke-miterlimit="2" version="1.1" viewBox="0 0 73 73" xml:space="preserve" xmlns="http://www.w3.org/2000/svg">
    
        <path d="m63.48 37.298h2.449l-3.918 0.98 1.469-0.98zm-13.526 7.17 1.273-1.91 2.546-0.636-3.819 2.546zm-8.091 9.365 0.637-2.548 1.911-1.274-2.548 3.822zm-4.623 12.155v-2.449l0.98-1.47-0.98 3.919zm-1.538-2.449v2.449l-0.98-3.919 0.98 1.47zm-7.17-13.528 1.91 1.274 0.637 2.547-2.547-3.821zm-9.363-8.089 2.547 0.636 1.273 1.91-3.82-2.546zm-12.156-4.624h2.449l1.469 0.98-3.918-0.98zm2.449-1.537h-2.449l3.918-0.98-1.469 0.98zm13.527-7.171-1.273 1.91-2.547 0.637 3.82-2.547zm8.09-9.363-0.637 2.547-1.91 1.273 2.547-3.82zm4.623-12.157v2.45l-0.98 1.47 0.98-3.92zm1.538 2.45v-2.45l0.98 3.92-0.98-1.47zm7.17 13.527-1.91-1.273-0.637-2.548 2.547 3.821zm9.363 8.09-2.546-0.636-1.273-1.91 3.819 2.546zm0.961 6.161h5.975l-3.133 2.088-5.082 1.272 2.24-3.36zm-10.066 5.315 1.329-5.315h6.889l-2.609 3.913-5.609 1.402zm-0.423 1.691 4.765-1.191-2.382 3.572-3.574 2.383 1.191-4.764zm-7.005 8.64v-6.889l5.315-1.329-1.402 5.609-3.913 2.609zm0 1.848 3.359-2.24-1.271 5.082-2.088 3.133v-5.975zm-1.538 0v5.975l-2.088-3.133-1.272-5.082 3.36 2.24zm-5.315-10.066 5.315 1.329v6.889l-3.913-2.609-1.402-5.609zm-1.69-0.422 1.191 4.764-3.573-2.382-2.382-3.573 4.764 1.191zm-8.64-7.006h6.889l1.328 5.315-5.609-1.402-2.608-3.913zm-1.848 0 2.239 3.36-5.082-1.272-3.133-2.088h5.976zm0-1.537h-5.976l3.132-2.088 5.083-1.271-2.239 3.359zm10.065-5.316-1.328 5.316h-6.889l2.608-3.913 5.609-1.403zm0.423-1.69-4.764 1.191 2.382-3.573 3.573-2.382-1.191 4.764zm7.005-8.64v6.889l-5.315 1.329 1.402-5.61 3.913-2.608zm0-1.848-3.36 2.239 1.272-5.081 2.088-3.133v5.975zm1.538 0v-5.975l2.089 3.133 1.27 5.081-3.359-2.239zm5.315 10.066-5.315-1.329v-6.889l3.913 2.608 1.402 5.61zm1.69 0.422-1.191-4.764 3.574 2.382 2.382 3.573-4.765-1.191zm-7.005 8.543h7.173l-1.435 5.738-5.738 1.434v-7.172zm-1.538 0v7.172l-5.738-1.434-1.435-5.738h7.173zm0-1.537h-7.173l1.435-5.738 5.738-1.435v7.173zm1.538-7.173 5.738 1.435 1.435 5.738h-7.173v-7.173zm15.646 7.173h-6.889l-1.329-5.316 5.61 1.403 2.608 3.913zm1.848 0-2.239-3.359 5.082 1.271 3.132 2.088h-5.975zm11.195 0h-2.449l-1.469-0.98 3.918 0.98zm7.001 0.827c2e-3 -0.021 0.012-0.038 0.012-0.059s-0.01-0.038-0.012-0.058c-2e-3 -0.033-3e-3 -0.064-0.01-0.095-2e-3 -0.012 2e-3 -0.022-2e-3 -0.033-4e-3 -0.02-0.018-0.034-0.024-0.052-0.013-0.037-0.026-0.072-0.043-0.107-0.015-0.029-0.029-0.056-0.048-0.083-0.017-0.025-0.035-0.046-0.055-0.069-0.024-0.028-0.048-0.052-0.076-0.077-0.024-0.021-0.048-0.04-0.075-0.059-0.025-0.017-0.051-0.03-0.078-0.044-0.034-0.017-0.069-0.031-0.106-0.043-0.019-7e-3 -0.033-0.021-0.054-0.026l-14.151-3.537-10.472-6.981-6.982-10.473-3.538-14.151c-4e-3 -0.02-0.018-0.034-0.024-0.053-0.013-0.037-0.026-0.071-0.043-0.106-0.015-0.028-0.029-0.055-0.047-0.081-0.017-0.027-0.037-0.049-0.057-0.073-0.024-0.027-0.048-0.051-0.075-0.075-0.023-0.02-0.046-0.039-0.071-0.057-0.028-0.019-0.056-0.033-0.086-0.048-0.033-0.017-0.066-0.029-0.102-0.041-0.019-7e-3 -0.034-0.021-0.054-0.026-0.01-2e-3 -0.02 1e-3 -0.03-1e-3 -0.034-7e-3 -0.067-8e-3 -0.101-0.01-0.019-2e-3 -0.035-0.012-0.055-0.012-0.019 0-0.035 0.01-0.054 0.011-0.035 3e-3 -0.068 4e-3 -0.102 0.011-0.01 2e-3 -0.02-1e-3 -0.03 1e-3 -0.02 5e-3 -0.035 0.019-0.054 0.026-0.035 0.012-0.069 0.024-0.102 0.04-0.03 0.016-0.058 0.03-0.086 0.049-0.026 0.018-0.048 0.037-0.071 0.057-0.027 0.024-0.051 0.047-0.074 0.074-0.021 0.024-0.041 0.047-0.059 0.074s-0.031 0.053-0.046 0.081c-0.017 0.035-0.03 0.069-0.042 0.106-7e-3 0.019-0.021 0.033-0.025 0.053l-3.538 14.151-6.981 10.472-10.473 6.982-14.151 3.537c-0.02 5e-3 -0.035 0.019-0.054 0.026-0.036 0.012-0.069 0.024-0.102 0.041-0.03 0.015-0.059 0.03-0.087 0.049-0.025 0.017-0.047 0.036-0.07 0.056-0.027 0.024-0.051 0.047-0.074 0.074-0.021 0.024-0.041 0.048-0.06 0.075-0.017 0.026-0.031 0.053-0.045 0.081-0.017 0.034-0.031 0.068-0.042 0.105-7e-3 0.019-0.021 0.033-0.025 0.053-3e-3 0.011 0 0.021-2e-3 0.033-7e-3 0.031-7e-3 0.062-0.01 0.095-2e-3 0.02-0.012 0.037-0.012 0.058s0.01 0.038 0.012 0.059c3e-3 0.032 3e-3 0.063 0.01 0.095 2e-3 0.011-1e-3 0.022 2e-3 0.033 5e-3 0.022 0.018 0.039 0.026 0.06 0.012 0.035 0.025 0.066 0.041 0.098 0.011 0.021 0.017 0.043 0.03 0.063 0.019 0.031 0.045 0.056 0.069 0.083 0.023 0.028 0.045 0.053 0.07 0.077 0.016 0.014 0.028 0.031 0.044 0.043 0.01 8e-3 0.024 0.012 0.035 0.019 0.022 0.015 0.048 0.026 0.071 0.039 0.029 0.015 0.053 0.033 0.083 0.044 0.021 8e-3 0.041 0.014 0.063 0.02 0.01 3e-3 0.017 0.011 0.027 0.013l14.152 3.538 10.471 6.981 6.982 10.473 3.538 14.15c5e-3 0.023 0.019 0.04 0.026 0.062 0.012 0.033 0.025 0.065 0.041 0.097 0.011 0.021 0.017 0.044 0.03 0.063 0.019 0.031 0.045 0.055 0.069 0.083 0.023 0.028 0.045 0.053 0.072 0.077 0.015 0.013 0.026 0.03 0.042 0.043 0.01 8e-3 0.024 0.011 0.035 0.019 0.022 0.015 0.048 0.026 0.072 0.038 0.028 0.016 0.052 0.033 0.082 0.045 0.021 8e-3 0.041 0.014 0.063 0.02 0.01 3e-3 0.017 0.01 0.027 0.013 0.06 0.015 0.121 0.021 0.181 0.022 2e-3 0 3e-3 1e-3 4e-3 1e-3h2e-3c1e-3 0 2e-3 -1e-3 4e-3 -1e-3 0.06-1e-3 0.121-7e-3 0.181-0.022 0.01-3e-3 0.017-0.01 0.027-0.013 0.021-6e-3 0.042-0.012 0.063-0.02 0.03-0.012 0.054-0.029 0.082-0.045 0.024-0.013 0.05-0.023 0.072-0.038 0.011-8e-3 0.025-0.011 0.035-0.019 0.016-0.013 0.027-0.03 0.042-0.043 0.027-0.024 0.049-0.049 0.072-0.077 0.024-0.028 0.05-0.052 0.069-0.083 0.013-0.019 0.019-0.042 0.03-0.063 0.016-0.032 0.029-0.064 0.041-0.097 7e-3 -0.022 0.021-0.039 0.026-0.062l3.538-14.15 6.983-10.473 10.47-6.981 14.152-3.538c0.01-2e-3 0.017-0.01 0.027-0.013 0.021-6e-3 0.042-0.012 0.063-0.02 0.03-0.011 0.054-0.029 0.083-0.044 0.024-0.013 0.049-0.024 0.071-0.039 0.011-7e-3 0.025-0.011 0.035-0.019 0.016-0.012 0.028-0.029 0.043-0.043 0.026-0.024 0.048-0.049 0.071-0.077 0.024-0.027 0.05-0.052 0.069-0.083 0.013-0.02 0.019-0.042 0.03-0.063 0.016-0.032 0.029-0.063 0.041-0.098 7e-3 -0.021 0.021-0.038 0.026-0.06 4e-3 -0.011 0-0.022 2e-3 -0.033 6e-3 -0.032 8e-3 -0.063 0.01-0.095z" fill="#4f1c97" fill-rule="nonzero"/>
    
</svg>
