<?xml version="1.0" encoding="UTF-8"?>
<svg clip-rule="evenodd" fill-rule="evenodd" stroke-linejoin="round" stroke-miterlimit="2" version="1.1" viewBox="0 0 188 74" xml:space="preserve" xmlns="http://www.w3.org/2000/svg">
    <g fill="currentColor" fill-rule="nonzero">
        <path d="m46.444 36.171v3.187l-1.275-5.099 1.275 1.912zm-9.328-17.597 2.485 1.657 0.829 3.313-3.314-4.97zm-12.181-10.524 3.313 0.828 1.657 2.485-4.97-3.313zm-15.812-6.015h3.184l1.911 1.274-5.095-1.274zm166.35 0h3.184l-5.095 1.274 1.911-1.274zm-17.598 9.328 1.657-2.485 3.314-0.828-4.971 3.313zm-10.524 12.182 0.828-3.314 2.485-1.657-3.313 4.971zm-6.014 15.812v-3.186l1.274-1.912-1.274 5.098zm-88.317-10.044 9.082-13.623 13.623-9.082 18.167-4.542 18.167 4.541 13.623 9.083 9.082 13.623 4.292 17.167h-90.328l4.292-17.167zm-6.572-4.521v7.774l-2.717-4.076-1.653-6.611 4.37 2.913zm-6.915-13.094 6.915 1.729v8.962l-5.091-3.394-1.824-7.297zm-2.198-0.549 1.549 6.197-4.649-3.099-3.099-4.648 6.199 1.55zm9.113 0.216-7.465-1.866-1.866-7.464h9.331v9.33zm9.464-1.866-7.464 1.866v-9.33h9.33l-1.866 7.464zm10.731-0.621 3.313-0.828-4.97 3.313 1.657-2.485zm-10.632 8.469 1.549-6.198 6.198-1.55-3.099 4.649-4.648 3.099zm-0.721 2.884 2.485-1.657-3.313 4.971 0.828-3.314zm-6.842 12.334v-7.773l4.369-2.912-1.652 6.61-2.717 4.075zm0 3.606 1.274-1.912-1.274 5.098v-3.186zm0-22.744 6.914-1.729-1.824 7.297-5.09 3.394v-8.962zm90.889-2.062-7.465-1.866-1.866-7.464h9.331v9.33zm9.464-1.866-7.464 1.866v-9.33h9.33l-1.866 7.464zm1.648 1.65 6.199-1.55-3.1 4.649-4.648 3.099 1.549-6.198zm-9.112 11.24v-8.962l6.915-1.729-1.825 7.297-5.09 3.394zm0 2.403 4.369-2.912-1.652 6.61-2.717 4.075v-7.773zm-2 11.38v3.189l-1.275-5.102 1.275 1.913zm-4.37-14.292 4.37 2.913v7.774l-2.718-4.077-1.652-6.61zm-2.473-1.649 0.828 3.314-3.313-4.971 2.485 1.657zm6.843 2.158-5.091-3.394-1.825-7.297 6.916 1.729v8.962zm-16.539-11.026-4.971-3.313 3.314 0.828 1.657 2.485zm1.227-1.764 6.199 1.55 1.549 6.198-4.648-3.099-3.1-4.649zm47.842-7.564-4.074 2.716-6.612 1.653 2.913-4.369h7.773zm-10.177 0-3.393 5.09-7.298 1.825 1.729-6.915h8.962zm-33.745 0 1.729 6.915-7.298-1.825-3.393-5.09h8.962zm-11.366 0 2.913 4.369-6.612-1.653-4.074-2.716h7.773zm-11.379 0 1.911 1.274-5.095-1.274h3.184zm-19.431 0-5.097 1.274 1.912-1.274h3.185zm-6.791 0-4.074 2.716-6.612 1.653 2.913-4.369h7.773zm-10.177 0-3.393 5.09-7.298 1.825 1.729-6.915h8.962zm-42.707 0h8.962l1.729 6.915-7.298-1.825-3.393-5.09zm-2.404 0 2.913 4.369-6.612-1.653-4.074-2.716h7.773zm163.09 44.445h-45.163l4.292-17.167 9.082-13.623 13.623-9.083 18.409-4.602c0.025-6e-3 0.044-0.024 0.069-0.033 0.067-0.022 0.125-0.052 0.184-0.087 0.055-0.032 0.106-0.063 0.153-0.103 0.049-0.043 0.087-0.09 0.127-0.141s0.077-0.1 0.106-0.157c0.028-0.056 0.045-0.114 0.063-0.174 0.019-0.066 0.035-0.129 0.04-0.199 2e-3 -0.026 0.015-0.049 0.015-0.076 0-0.043-0.019-0.08-0.024-0.122-5e-3 -0.041 4e-3 -0.08-6e-3 -0.121-6e-3 -0.025-0.024-0.043-0.032-0.068-0.023-0.067-0.054-0.126-0.089-0.187-0.032-0.053-0.062-0.104-0.102-0.15-0.042-0.049-0.09-0.087-0.141-0.127-0.051-0.041-0.101-0.078-0.159-0.108-0.053-0.027-0.108-0.043-0.166-0.06-0.069-0.021-0.136-0.037-0.209-0.042-0.025-2e-3 -0.046-0.015-0.072-0.015h-185.78c-0.026 0-0.047 0.013-0.072 0.015-0.074 5e-3 -0.144 0.021-0.213 0.043-0.055 0.016-0.109 0.032-0.16 0.058-0.06 0.03-0.113 0.069-0.166 0.112-0.049 0.038-0.095 0.075-0.135 0.122-0.041 0.047-0.072 0.099-0.104 0.154-0.035 0.06-0.066 0.118-0.088 0.185-8e-3 0.025-0.026 0.043-0.032 0.068-0.01 0.041-1e-3 0.08-6e-3 0.121-5e-3 0.042-0.024 0.079-0.024 0.122 0 0.027 0.013 0.05 0.015 0.076 5e-3 0.07 0.021 0.133 0.04 0.199 0.018 0.061 0.035 0.118 0.063 0.174 0.029 0.057 0.066 0.106 0.105 0.157 0.041 0.051 0.079 0.098 0.128 0.141 0.046 0.04 0.098 0.071 0.152 0.103 0.06 0.035 0.118 0.065 0.184 0.087 0.024 9e-3 0.043 0.027 0.07 0.033l18.409 4.602 13.624 9.083 9.082 13.623 4.292 17.167h-45.164c-0.553 0-1 0.447-1 1 0 0.552 0.447 1 1 1h185.78c0.553 0 1-0.448 1-1 0-0.553-0.447-1-1-1z"/>
        <path d="m79.585 63.99h-10.946v-5.964h10.946c1.644 0 2.982 1.338 2.982 2.982s-1.338 2.982-2.982 2.982zm2.982 4.981c0 1.645-1.338 2.983-2.982 2.983h-10.946v-5.964h10.946c1.644 0 2.982 1.338 2.982 2.981zm2-7.963c0-2.747-2.235-4.982-4.982-4.982h-11.946c-0.553 0-1 0.448-1 1v15.928c0 0.552 0.447 1 1 1h11.946c2.747 0 4.982-2.235 4.982-4.983 0-1.633-0.801-3.072-2.02-3.981 1.219-0.909 2.02-2.349 2.02-3.982z"/>
        <path d="m58.211 58.026c0.553 0 1-0.448 1-1s-0.447-1-1-1h-15.928c-0.553 0-1 0.448-1 1v15.928c0 0.552 0.447 1 1 1h15.928c0.553 0 1-0.448 1-1 0-0.553-0.447-1-1-1h-14.928v-5.964h14.928c0.553 0 1-0.448 1-1s-0.447-1-1-1h-14.928v-5.964h14.928z"/>
        <path d="m37.569 56.026c-0.553 0-1 0.448-1 1v6.964h-13.928v-6.964c0-0.552-0.447-1-1-1s-1 0.448-1 1v15.928c0 0.552 0.447 1 1 1s1-0.448 1-1v-6.964h13.928v6.964c0 0.552 0.447 1 1 1s1-0.448 1-1v-15.928c0-0.552-0.447-1-1-1z"/>
        <path d="m124.87 58.025c0.553 0 1-0.447 1-1 0-0.552-0.447-1-1-1h-15.928c-0.552 0-1 0.448-1 1 0 0.553 0.448 1 1 1h6.964v13.929h-6.964c-0.552 0-1 0.446-1 0.999 0 0.552 0.448 1 1 1h15.928c0.553 0 1-0.448 1-1 0-0.553-0.447-0.999-1-0.999h-6.964v-13.929h6.964z"/>
        <path d="m16.927 56.026h-15.927c-0.553 0-1 0.448-1 1s0.447 1 1 1h6.963v14.928c0 0.552 0.448 1 1 1 0.553 0 1-0.448 1-1v-14.928h6.964c0.553 0 1-0.448 1-1s-0.447-1-1-1z"/>
        <path d="m186.78 66.005c0.553 0 1-0.447 1-1 0-0.552-0.447-1-1-1h-14.927v-5.964h14.927c0.553 0 1-0.448 1-1s-0.447-1-1-1h-15.927c-0.553 0-1 0.448-1 1v15.928c0 0.552 0.447 1 1 1h15.927c0.553 0 1-0.448 1-1s-0.447-0.999-1-0.999h-14.927v-5.965h14.927z"/>
        <path d="m166.14 64.036h-7.964c-0.553 0-1 0.448-1 1s0.447 1.001 1 1.001h6.884c-0.488 3.365-3.385 5.963-6.884 5.963-3.84 0-6.964-3.124-6.964-6.964s3.124-6.963 6.964-6.963c1.95 0 3.76 0.788 5.094 2.22 0.375 0.404 1.01 0.426 1.413 0.05 0.404-0.376 0.427-1.009 0.05-1.413-1.692-1.816-4.082-2.858-6.557-2.858-4.942 0-8.964 4.021-8.964 8.964s4.022 8.964 8.964 8.964 8.964-4.021 8.964-8.964c0-0.552-0.447-1-1-1z"/>
        <path d="m89.281 63.99v-5.964h10.947c1.643 0 2.981 1.338 2.981 2.982s-1.338 2.982-2.981 2.982h-10.947zm6.816 2h4.131c2.747 0 4.981-2.235 4.981-4.982s-2.234-4.982-4.981-4.982h-11.947c-0.553 0-1 0.448-1 1v15.928c0 0.552 0.447 1 1 1s1-0.448 1-1v-6.964h3.353l10.995 7.778c0.451 0.319 1.074 0.213 1.394-0.238 0.319-0.451 0.212-1.075-0.239-1.394l-8.687-6.146z"/>
        <path d="m137.53 71.97h-6.966v-13.929l6.966 1e-3c1e-3 0 2e-3 -1e-3 2e-3 -1e-3 3.839 1e-3 6.962 3.125 6.962 6.964 0 3.84-3.124 6.965-6.964 6.965zm0-15.929c-1e-3 0-1e-3 1e-3 -2e-3 1e-3l-7.964-1e-3c-0.552 0-1 0.448-1 1v15.928c0 0.552 0.448 1 1 1h7.966c4.943 0 8.964-4.021 8.964-8.964 0-4.942-4.021-8.964-8.964-8.964z"/>
    </g>
</svg>
