<?xml version="1.0" encoding="UTF-8"?>
<svg id="Layer_1" xmlns="http://www.w3.org/2000/svg" version="1.1" viewBox="0 0 200 87">
  <!-- Generator: Adobe Illustrator 29.5.1, SVG Export Plug-In . SVG Version: 2.1.0 Build 141)  -->
  <defs>
    <style>
      .st0 {
        fill: #17699a;
      }
    </style>
  </defs>
  <g>
    <path class="st0" d="M19.67,24.87v-1.34c0-.17.22-.39.38-.39h15.3c.16,0,.38.22.38.39v1.34c0,.17-.22.39-.38.39h-6.45v14.31c0,.17-.16.34-.33.34h-1.74c-.16,0-.33-.17-.33-.34v-14.31h-6.45c-.16,0-.38-.22-.38-.39Z"/>
    <path class="st0" d="M55.04,39.58c0,.17-.16.34-.33.34h-1.74c-.16,0-.33-.17-.33-.34v-6.49h-11.27v6.49c0,.17-.16.34-.33.34h-1.74c-.16,0-.33-.17-.33-.34v-16.1c0-.17.16-.34.33-.34h1.74c.16,0,.33.17.33.34v7.49h11.27v-7.49c0-.17.16-.34.33-.34h1.74c.16,0,.33.17.33.34v16.1Z"/>
    <path class="st0" d="M62.47,32.31v5.48h10.34c.16,0,.38.22.38.39v1.34c0,.17-.22.39-.38.39h-12.41c-.16,0-.33-.17-.33-.34v-16.1c0-.17.16-.34.33-.34h12.14c.16,0,.38.22.38.39v1.34c0,.17-.22.39-.38.39h-10.07v4.92h9.26c.16,0,.38.22.38.39v1.34c0,.17-.22.39-.38.39h-9.26Z"/>
    <path class="st0" d="M83.65,39.91c-.16,0-.33-.17-.33-.34v-16.1c0-.17.16-.34.33-.34h7.65c3.65,0,5.55,1.9,5.55,4.5,0,1.45-.54,2.52-1.5,3.27v.06c1.36.81,2.18,2.18,2.18,4,0,3.21-2.26,4.95-6.1,4.95h-7.79ZM85.72,25.26v4.78h6.07c2.2,0,2.67-1.03,2.67-2.4s-.79-2.38-3.21-2.38h-5.53ZM91.38,37.79c2.61,0,3.76-.95,3.76-2.82s-1.17-2.8-3.76-2.8h-5.66v5.62h5.66Z"/>
    <path class="st0" d="M101.05,23.48c0-.17.16-.34.33-.34h6.97c3.84,0,6.64,1.96,6.64,5.51,0,2.71-1.69,4.42-4.19,5.06v.06s.57.53,1.03,1.2l3.1,4.42c.16.22.19.31.19.36,0,.11-.05.17-.22.17h-2.23c-.14,0-.3-.08-.38-.2l-4.03-5.73h-4.82v5.59c0,.17-.16.34-.33.34h-1.74c-.16,0-.33-.17-.33-.34v-16.1ZM103.44,25.26v6.74h4.85c2.5,0,4.3-1.17,4.3-3.35s-1.77-3.38-4.3-3.38h-4.85Z"/>
    <path class="st0" d="M121.44,39.58c0,.17-.16.34-.33.34h-1.74c-.16,0-.33-.17-.33-.34v-16.1c0-.17.16-.34.33-.34h1.74c.16,0,.33.17.33.34v16.1Z"/>
    <path class="st0" d="M126.8,39.91c-.16,0-.33-.17-.33-.34v-16.1c0-.17.16-.34.33-.34h6.72c4.98,0,8.82,3.22,8.82,8.39s-3.24,8.39-8.77,8.39h-6.78ZM128.87,25.26v12.53h4.71c4.3,0,6.37-2.43,6.37-6.26s-2.75-6.26-6.42-6.26h-4.65Z"/>
    <path class="st0" d="M162.27,32.65c0,4.17-2.7,7.55-8.3,7.55-4.85,0-8.55-3.24-8.55-8.67s3.7-8.67,8.55-8.67c5.44,0,7.68,3.49,7.76,6.18,0,.17-.08.25-.38.25h-1.72c-.14,0-.27,0-.3-.25-.22-1.85-1.63-4.05-5.36-4.05-3.51,0-6.15,2.4-6.15,6.54s2.64,6.54,6.15,6.54c3.87,0,5.77-2.18,5.77-4.31h-6.97c-.16,0-.38-.22-.38-.39v-1.34c0-.17.22-.39.38-.39h9.5v1.01Z"/>
    <path class="st0" d="M168.73,32.31v5.48h10.34c.16,0,.38.22.38.39v1.34c0,.17-.22.39-.38.39h-12.41c-.16,0-.33-.17-.33-.34v-16.1c0-.17.16-.34.33-.34h12.14c.16,0,.38.22.38.39v1.34c0,.17-.22.39-.38.39h-10.07v4.92h9.26c.16,0,.38.22.38.39v1.34c0,.17-.22.39-.38.39h-9.26Z"/>
  </g>
  <path class="st0" d="M100.17,62.2l-61.32-13.59,34.57,20.49.15-.03,6-1.37,13.16,5.9,7.29-2.73h0s.15-.05.15-.05l.15.05h0s7.29,2.73,7.29,2.73l13.16-5.9,6,1.37.15.03,34.57-20.49-61.32,13.59ZM153.04,51.25l-39.5,14.02-11.67-2.67,51.17-11.34ZM98.47,62.59l-11.67,2.67-39.5-14.02,51.17,11.34ZM73.55,68.3l-26.29-15.58,18.67,8.86,12.5,5.6-4.89,1.12ZM66.25,60.9l-17.79-8.44,36.98,13.12-5.79,1.33-13.4-6ZM92.76,72.78l-11.97-5.36,5.97-1.37,12.3,4.37-6.3,2.36ZM100.17,69.99l-.15-.06v.02l-11.9-4.22,12.05-2.76,12.05,2.76-11.9,4.22v-.02l-.15.06ZM107.58,72.78l-6.3-2.36,12.3-4.37,5.97,1.37-11.97,5.36ZM120.69,66.9l-5.79-1.33,36.98-13.12-17.79,8.44-13.4,6ZM126.79,68.3l-4.89-1.12,12.5-5.6,18.67-8.86-26.29,15.58Z"/>
</svg>