<?xml version="1.0" encoding="UTF-8"?>
<svg style="height:100%;transform:translate3d(0px, 0px, 0px);width:100%" version="1.1" viewBox="0 0 5222 1200" xmlns="http://www.w3.org/2000/svg">
 <defs>
  <clipPath id="__lottie_element_2">
   <rect width="5222" height="1200"/>
  </clipPath>
  <clipPath id="__lottie_element_13">
   <path d="m575.25 0.812c-285.75 507.04-901.75 383.33-1115.1 195.65-15.74-42.987-26.494-88.377-31.563-135.47 88.921-365.51 684.92-687.16 1133.9-183.14 8.343 38.984 12.734 81.494 12.734 122.97" fill="#fff"/>
  </clipPath>
  <clipPath id="__lottie_element_16">
   <path d="m575.25 0.812c-285.75 507.04-901.75 383.33-1115.1 195.65-15.74-42.987-26.494-88.377-31.563-135.47 88.921-365.51 684.92-687.16 1133.9-183.14 8.343 38.984 12.734 81.494 12.734 122.97" fill="#fff"/>
  </clipPath>
  <clipPath id="__lottie_element_19">
   <path d="m575.25 0.812c-285.75 507.04-901.75 383.33-1115.1 195.65-15.74-42.987-26.494-88.377-31.563-135.47 88.921-365.51 684.92-687.16 1133.9-183.14 8.343 38.984 12.734 81.494 12.734 122.97" fill="#fff"/>
  </clipPath>
  <clipPath id="__lottie_element_22">
   <path d="m575.25 0.812c-285.75 507.04-901.75 383.33-1115.1 195.65-15.74-42.987-26.494-88.377-31.563-135.47 88.921-365.51 684.92-687.16 1133.9-183.14 8.343 38.984 12.734 81.494 12.734 122.97" fill="#fff"/>
  </clipPath>
  <clipPath id="__lottie_element_25">
   <path d="m575.25 0.812c-285.75 507.04-901.75 383.33-1115.1 195.65-15.74-42.987-26.494-88.377-31.563-135.47 88.921-365.51 684.92-687.16 1133.9-183.14 8.343 38.984 12.734 81.494 12.734 122.97" fill="#fff"/>
  </clipPath>
  <clipPath id="__lottie_element_28">
   <path d="m575.25 0.812c-285.75 507.04-901.75 383.33-1115.1 195.65-15.74-42.987-26.494-88.377-31.563-135.47 88.921-365.51 684.92-687.16 1133.9-183.14 8.343 38.984 12.734 81.494 12.734 122.97" fill="#fff"/>
  </clipPath>
  <clipPath id="__lottie_element_31">
   <path d="m575.25 0.812c-285.75 507.04-901.75 383.33-1115.1 195.65-15.74-42.987-26.494-88.377-31.563-135.47 88.921-365.51 684.92-687.16 1133.9-183.14 8.343 38.984 12.734 81.494 12.734 122.97" fill="#fff"/>
  </clipPath>
 </defs>
 <g clip-path="url(#__lottie_element_2)">
  <g transform="matrix(1 0 0 .97 611 603.87)" display="block">
   <g transform="translate(575.25 575.25)">
    <path d="m-0.5-577c0 317.56-257.44 575-575 575-317.56 0-575-257.44-575-575 0-317.56 257.44-575 575-575 317.56 0 575 257.44 575 575z" fill="#fff"/>
   </g>
  </g>
  <g transform="translate(611 600)" clip-path="url(#__lottie_element_31)" display="none">
   <g>
    <path d="m-680 236s325.62-322.23 396-280c80 48 25.756 224 116 224 88 0 336-448 392-408 55.992 39.994 196.96 319.92 611.82 100.1" fill-opacity="0" stroke="#72085c" stroke-linecap="round" stroke-linejoin="round" stroke-width="582"/>
   </g>
  </g>
  <g transform="translate(611 600)" clip-path="url(#__lottie_element_28)" display="none">
   <g>
    <path d="m-680 236s325.62-322.23 396-280c80 48 25.756 224 116 224 88 0 336-448 392-408 55.992 39.994 196.96 319.92 611.82 100.1" fill-opacity="0" stroke="#093c9a" stroke-linecap="round" stroke-linejoin="round" stroke-width="242"/>
   </g>
  </g>
  <g transform="translate(611 600)" clip-path="url(#__lottie_element_25)" display="none">
   <g>
    <path d="m-680 236s325.62-322.23 396-280c80 48 25.756 224 116 224 88 0 336-448 392-408 55.992 39.994 196.96 319.92 611.82 100.1" fill-opacity="0" stroke="#fc1d67" stroke-linecap="round" stroke-linejoin="round" stroke-width="405"/>
   </g>
  </g>
  <g transform="translate(611 600)" clip-path="url(#__lottie_element_22)" display="none">
   <g>
    <path d="m-680 236s325.62-322.23 396-280c80 48 25.756 224 116 224 88 0 336-448 392-408 56 40 197 320 612 100" fill-opacity="0" stroke="#ffd413" stroke-linecap="round" stroke-linejoin="round" stroke-width="271"/>
   </g>
  </g>
  <g transform="translate(611 600)" clip-path="url(#__lottie_element_19)" display="none">
   <g>
    <path d="m-680 236s325.62-322.23 396-280c80 48 25.756 224 116 224 88 0 336-448 392-408 56 40 197 320 612 100" fill-opacity="0" stroke="#fe710d" stroke-linecap="round" stroke-linejoin="round" stroke-width="271"/>
   </g>
  </g>
  <g transform="translate(609.5 600)" clip-path="url(#__lottie_element_16)" display="none">
   <g>
    <path d="m-680 236s325.62-322.23 396-280c80 48 25.756 224 116 224 88 0 336-448 392-408 56 40 197 320 612 100" fill-opacity="0" stroke="#54efe8" stroke-linecap="round" stroke-linejoin="round" stroke-width="362"/>
   </g>
  </g>
  <g transform="matrix(.999 0 0 .999 610 600)" clip-path="url(#__lottie_element_13)" display="block">
   <g>
    <path d="m-680 236s325.62-322.23 396-280c80 48 25.756 224 116 224 88 0 336-448 392-408 56 40 197 320 612 100" fill-opacity="0" stroke="#fff" stroke-linecap="round" stroke-linejoin="round" stroke-width="299"/>
   </g>
  </g>
  <g transform="translate(69.333 476.6)" display="block">
   <g transform="translate(558.33 361.66)">
    <path d="m210.05-361.41c-125.17 0-226.95 405.51-429.8 405.51-116.64 0-40.722-231.11-122.2-231.11-57.4 0-149.74 77.703-216.13 142.42 94.429 264.55 371.07 426.71 654.56 369.67 272.27-54.774 460.6-293.54 461.61-560.83-22.958 11.293-48.338 18.165-76.584 18.165-140.06 0-196.8-143.83-271.45-143.83z" fill="#eb2121"/>
   </g>
  </g>
  <g transform="translate(5.93 -26.659)" display="block">
   <g transform="translate(586.37 381.58)">
    <path d="m-255.89 123.72c169.54 0 42.835 231.52 114.3 231.52 91.535 0 186.39-405.08 384.37-405.08 153.73 0 204.51 187.5 289.75 187.5 18.27 0 34.408-2.726 49.184-7-62.981-310.81-365.79-511.99-676.79-449.43-294.8 59.305-491.04 334.31-457.81 627.67 93.259-97.802 201.96-185.18 297-185.18z" fill="#eb2121"/>
   </g>
  </g>
  <g transform="translate(35.5 24.5)" display="block">
   <g transform="translate(4105.6 314.27)">
    <path d="m0-184.43c-101.86 0-184.43 82.575-184.43 184.44 0 101.86 82.575 184.43 184.43 184.43 101.86 0 184.43-82.573 184.43-184.43 0-101.86-82.574-184.44-184.43-184.44zm0 267.66c-45.963 0-83.223-37.259-83.223-83.222 0-45.963 37.26-83.224 83.223-83.224s83.224 37.261 83.224 83.224c0 45.963-37.261 83.222-83.224 83.222z" fill="currentColor"/>
   </g>
   <g transform="translate(4501.3 836.09)">
    <path d="m0-184.43c-101.86 0-184.43 82.573-184.43 184.43s82.574 184.43 184.43 184.43c101.86 0 184.43-82.573 184.43-184.43s-82.575-184.43-184.43-184.43zm0 267.65c-45.963 0-83.223-37.259-83.223-83.222s37.26-83.223 83.223-83.223 83.223 37.26 83.223 83.223-37.26 83.222-83.223 83.222z" fill="currentColor"/>
   </g>
   <g transform="translate(1970.9 836.09)">
    <path d="m0-184.43c-101.86 0-184.43 82.573-184.43 184.43s82.575 184.43 184.43 184.43c101.86 0 184.43-82.573 184.43-184.43s-82.574-184.43-184.43-184.43zm0 267.65c-45.963 0-83.223-37.259-83.223-83.222s37.26-83.223 83.223-83.223 83.224 37.26 83.224 83.223-37.261 83.222-83.224 83.222z" fill="currentColor"/>
   </g>
   <g transform="translate(1601.3 836.09)">
    <path d="m-131.16 170.87h101.01v-113.58h137.19v-84.93h-137.19v-56.788h161.32v-86.437h-262.33v341.73z" fill="currentColor"/>
   </g>
   <g transform="translate(2383.7 839.61)">
    <path d="m62.315 5.529c0 46.736-23.619 74.375-62.315 74.375-38.697 0-62.316-27.639-62.316-74.375v-179.91h-102.52v176.39c0 112.07 61.309 172.37 164.83 172.37 103.52 0 164.83-60.304 164.83-172.37v-176.39h-102.52v179.91z" fill="currentColor"/>
   </g>
   <g transform="translate(2795.2 836.09)">
    <path d="m59.802-6.533-142.22-164.33h-78.898v341.73h101.01v-161.32l142.72 161.32h78.9v-341.73h-101.52v164.33z" fill="currentColor"/>
   </g>
   <g transform="translate(3212.4 836.09)">
    <path d="m-21.106-170.87h-143.73v341.73h143.73c109.55 0 185.94-67.342 185.94-171.37 0-103.52-76.386-170.36-185.94-170.36zm0 252.28h-42.717v-162.82h42.717c47.741 0 82.919 33.67 82.919 80.909 0 47.742-35.178 81.915-82.919 81.915z" fill="currentColor"/>
   </g>
   <g transform="translate(3583.6 836.09)">
    <path d="m-49.5-170.87-141.72 341.73h108.05l17.588-48.747h131.17l18.089 48.747h107.55l-141.72-341.73h-99zm13.569 211.57s35.681-97.996 35.681-97.996 36.181 97.996 36.181 97.996h-71.862z" fill="currentColor"/>
   </g>
   <g transform="translate(3919.5 836.09)">
    <path d="m-152.27-82.92h101.51v253.79h101.51v-253.79h101.51v-87.945h-304.54v87.945z" fill="currentColor"/>
   </g>
   <g transform="translate(4194 836.09)">
    <path d="m-50.506 170.87h101.01v-341.73h-101.01v341.73z" fill="currentColor"/>
   </g>
   <g transform="translate(4910.5 836.09)">
    <path d="m59.803-6.533-142.22-164.33h-78.899v341.73h101.01v-161.32l142.72 161.32h78.899v-341.73h-101.51v164.33z" fill="currentColor"/>
   </g>
   <g transform="translate(1661.1 314.27)">
    <path d="m190.97 170.87v-341.73h-77.895l-113.07 159.31-113.07-159.31h-77.895v341.73h101.01l-0.503-153.78s63.823 96.991 63.823 96.991h53.27s63.321-95.985 63.321-95.985v152.77h101.01z" fill="currentColor"/>
   </g>
   <g transform="translate(1976.9 314.27)">
    <path d="m50.506-170.87h-101.01v341.73h101.01v-341.73z" fill="currentColor"/>
   </g>
   <g transform="translate(2259.9 314.27)">
    <path d="m161.32 170.87v-341.73h-101.51v164.33s-142.22-164.33-142.22-164.33h-78.899v341.73h101.01v-161.32l142.72 161.32h78.899z" fill="currentColor"/>
   </g>
   <g transform="translate(2651.5 314.27)">
    <path d="m161.32 170.87v-341.73h-101.51v164.33l-142.22-164.33h-78.899v341.73h101.01v-161.32l142.72 161.32h78.899z" fill="currentColor"/>
   </g>
   <g transform="translate(3013.1 314.27)">
    <path d="m132.67 85.935h-164.33v-44.727h140.71v-81.412h-140.71v-45.731h164.33v-84.93h-265.34v341.73h265.34v-84.93z" fill="currentColor"/>
   </g>
   <g transform="translate(3368.2 314.27)">
    <path d="m-65.582 122.12h131.16s18.092 48.747 18.092 48.747h107.55l-141.72-341.73h-99.001s-141.72 341.73-141.72 341.73h108.05s17.59-48.747 17.59-48.747zm65.331-179.41s36.183 97.996 36.183 97.996h-71.865s35.682-97.996 35.682-97.996z" fill="currentColor"/>
   </g>
   <g transform="translate(3740.3 314.27)">
    <path d="m-47.741 91.965h39.198c99.001 0 157.3-49.249 157.3-132.67 0-81.915-57.29-130.16-153.78-130.16h-143.73v341.73h101.01v-78.9zm0-176.89h41.711c32.665 0 52.265 16.584 52.265 44.224 0 29.147-19.6 46.736-52.265 46.736h-41.711v-90.96z" fill="currentColor"/>
   </g>
   <g transform="translate(4456.7 314.27)">
    <path d="m131.67 82.92h-162.32v-253.79h-101.01v341.73h263.33v-87.945z" fill="currentColor"/>
   </g>
   <g transform="translate(4695.4 314.27)">
    <path d="m-50.506 170.87h101.01v-341.73h-101.01v341.73z" fill="currentColor"/>
   </g>
   <g transform="translate(4950 314.27)">
    <path d="m54.778-35.179-56.285-12.061c-21.107-4.523-31.158-11.056-31.158-26.132 0-15.579 14.574-25.127 36.686-25.127 29.65 0 41.208 16.081 45.732 36.183h102.02c-9.045-96.991-97.996-115.58-151.77-115.58-82.92 0-140.71 41.71-140.71 114.08 0 54.778 32.666 82.417 100.01 97.996l57.29 13.569c22.614 5.025 26.634 14.574 26.634 24.122 0 14.071-13.569 23.117-36.686 23.117-32.665 0-52.767-15.579-57.792-40.706h-103.52c10.554 95.484 90.961 123.63 159.81 123.63 91.464 0 149.76-42.716 149.76-113.57 0-61.31-42.214-86.94-100.01-99.504z" fill="currentColor"/>
   </g>
  </g>
 </g>
</svg>
